grf
version=1
nRows=17
nColumns=37
inDegrees=no
endheader
time	ground_force_1_vx	ground_force_1_vy	ground_force_1_vz	ground_force_1_px	ground_force_1_py	ground_force_1_pz	ground_moment_1_mx	ground_moment_1_my	ground_moment_1_mz	ground_force_2_vx	ground_force_2_vy	ground_force_2_vz	ground_force_2_px	ground_force_2_py	ground_force_2_pz	ground_moment_2_mx	ground_moment_2_my	ground_moment_2_mz	ground_force_3_vx	ground_force_3_vy	ground_force_3_vz	ground_force_3_px	ground_force_3_py	ground_force_3_pz	ground_moment_3_mx	ground_moment_3_my	ground_moment_3_mz	ground_force_4_vx	ground_force_4_vy	ground_force_4_vz	ground_force_4_px	ground_force_4_py	ground_force_4_pz	ground_moment_4_mx	ground_moment_4_my	ground_moment_4_mz
      0.00000000	      0.00000000	     -0.00000000	      0.00000000	      0.00000000	      0.00000000	      0.00000000	      0.00000000	      0.00000000	      0.00000000	     -3.20236373	     18.17953300	   -205.50207520	   -338.75085374	   -969.81836418	      0.00000000	      0.00000000	      0.00000000	    670.04921286	    -12.32749444	    -17.66104644	   -438.85757446	   -308.85977286	   -715.28565027	      0.00000000	     -0.00000000	     -0.00000000	  -1680.85493451	      0.00000000	     -0.00000000	      0.00000000	      0.00000000	      0.00000000	      0.00000000	      0.00000000	      0.00000000	      0.00000000
      0.01000000	      0.00000000	     -0.00000000	      0.00000000	      0.00000000	      0.00000000	      0.00000000	      0.00000000	      0.00000000	      0.00000000	     -2.75968027	     18.61657333	   -205.22068787	   -339.24405467	   -968.49424697	      0.00000000	      0.00000000	      0.00000000	    714.28359499	    -12.94861106	    -17.14385739	   -438.84625244	   -309.05170562	   -715.22732006	      0.00000000	      0.00000000	     -0.00000000	  -1719.03591747	      0.00000000	     -0.00000000	      0.00000000	      0.00000000	      0.00000000	      0.00000000	      0.00000000	      0.00000000	      0.00000000
      0.02000000	      0.00000000	     -0.00000000	      0.00000000	      0.00000000	      0.00000000	      0.00000000	      0.00000000	      0.00000000	      0.00000000	     -1.96263123	     18.18538666	   -206.64337158	   -339.90994212	   -968.42584116	      0.00000000	      0.00000000	      0.00000000	   1006.34968896	    -13.02836684	    -17.21669522	   -436.80062866	   -309.39508382	   -716.17816288	      0.00000000	      0.00000000	     -0.00000000	  -1541.75028957	      0.00000000	     -0.00000000	      0.00000000	      0.00000000	      0.00000000	      0.00000000	      0.00000000	      0.00000000	      0.00000000
      0.03000000	      0.00000000	     -0.00000000	      0.00000000	      0.00000000	      0.00000000	      0.00000000	      0.00000000	      0.00000000	      0.00000000	     -1.78685701	     18.00963020	   -207.68028259	   -339.11539407	   -970.58059577	      0.00000000	      0.00000000	      0.00000000	   1005.62997804	    -12.51111105	    -17.05471556	   -440.24609375	   -309.77842029	   -714.36527823	      0.00000000	      0.00000000	     -0.00000000	  -1681.93376810	      0.00000000	     -0.00000000	      0.00000000	      0.00000000	      0.00000000	      0.00000000	      0.00000000	      0.00000000	      0.00000000
      0.04000000	      0.00000000	     -0.00000000	      0.00000000	      0.00000000	      0.00000000	      0.00000000	      0.00000000	      0.00000000	      0.00000000	     -2.30694771	     17.99683189	   -207.00311279	   -341.35044061	   -966.50393258	      0.00000000	      0.00000000	      0.00000000	    867.41253171	    -11.79578667	    -17.57875200	   -438.08795166	   -310.54229256	   -714.54382116	      0.00000000	     -0.00000000	     -0.00000000	  -1759.99560102	      0.00000000	     -0.00000000	      0.00000000	      0.00000000	      0.00000000	      0.00000000	      0.00000000	      0.00000000	      0.00000000
      0.05000000	      0.00000000	     -0.00000000	      0.00000000	      0.00000000	      0.00000000	      0.00000000	      0.00000000	      0.00000000	      0.00000000	     -2.40161562	     17.99257088	   -208.03230286	   -339.75411756	   -967.10788401	      0.00000000	      0.00000000	      0.00000000	    721.21841586	    -10.72100427	    -16.89015342	   -436.08016968	   -311.23979417	   -715.51050707	      0.00000000	      0.00000000	     -0.00000000	  -1744.62580995	      0.00000000	     -0.00000000	      0.00000000	      0.00000000	      0.00000000	      0.00000000	      0.00000000	      0.00000000	      0.00000000
      0.06000000	      0.00000000	     -0.00000000	      0.00000000	      0.00000000	      0.00000000	      0.00000000	      0.00000000	      0.00000000	      0.00000000	     -2.40868378	     17.72585869	   -208.34979248	   -339.98428171	   -968.39710212	      0.00000000	      0.00000000	      0.00000000	    909.74614872	     -9.66701105	    -17.04853969	   -433.95666504	   -312.64394898	   -715.46573435	      0.00000000	      0.00000000	     -0.00000000	  -1691.51796327	      0.00000000	     -0.00000000	      0.00000000	      0.00000000	      0.00000000	      0.00000000	      0.00000000	      0.00000000	      0.00000000
      0.07000000	      0.00000000	     -0.00000000	      0.00000000	      0.00000000	      0.00000000	      0.00000000	      0.00000000	      0.00000000	      0.00000000	     -1.70331168	     17.38665581	   -205.96971130	   -340.82015636	   -964.35645484	      0.00000000	      0.00000000	      0.00000000	   1261.89556000	     -8.86178376	    -16.69511184	   -432.91140747	   -313.79195573	   -715.60587283	      0.00000000	     -0.00000000	     -0.00000000	  -1569.28596498	      0.00000000	     -0.00000000	      0.00000000	      0.00000000	      0.00000000	      0.00000000	      0.00000000	      0.00000000	      0.00000000
      0.08000000	      0.00000000	     -0.00000000	      0.00000000	      0.00000000	      0.00000000	      0.00000000	      0.00000000	      0.00000000	      0.00000000	     -2.15267015	     16.86499214	   -209.74288940	   -339.91642134	   -969.23996345	      0.00000000	      0.00000000	      0.00000000	   1264.79355936	     -7.89526058	    -16.42566074	   -431.54278564	   -315.04653533	   -716.24264682	      0.00000000	      0.00000000	     -0.00000000	  -1684.90256148	      0.00000000	     -0.00000000	      0.00000000	      0.00000000	      0.00000000	      0.00000000	      0.00000000	      0.00000000	      0.00000000
      0.09000000	      0.00000000	     -0.00000000	      0.00000000	      0.00000000	      0.00000000	      0.00000000	      0.00000000	      0.00000000	      0.00000000	     -2.49431968	     17.64603424	   -206.99174500	   -341.37954685	   -964.26771448	      0.00000000	      0.00000000	      0.00000000	    978.84562867	     -7.26818061	    -16.33951155	   -432.24169922	   -316.14973071	   -715.22666217	      0.00000000	      0.00000000	     -0.00000000	  -1639.55234488	      0.00000000	     -0.00000000	      0.00000000	      0.00000000	      0.00000000	      0.00000000	      0.00000000	      0.00000000	      0.00000000
      0.10000000	      0.00000000	     -0.00000000	      0.00000000	      0.00000000	      0.00000000	      0.00000000	      0.00000000	      0.00000000	      0.00000000	     -2.59371305	     17.38537979	   -210.11589050	   -339.95752495	   -970.71719156	      0.00000000	      0.00000000	      0.00000000	    924.73375498	     -6.92324279	    -16.07265442	   -432.58392334	   -316.37334053	   -715.42597010	      0.00000000	      0.00000000	      0.00000000	  -1843.38395479	      0.00000000	     -0.00000000	      0.00000000	      0.00000000	      0.00000000	      0.00000000	      0.00000000	      0.00000000	      0.00000000
      0.11000000	      0.00000000	     -0.00000000	      0.00000000	      0.00000000	      0.00000000	      0.00000000	      0.00000000	      0.00000000	      0.00000000	     -2.76703572	     17.47710228	   -209.45960999	   -339.32999732	   -966.63215425	      0.00000000	      0.00000000	      0.00000000	   1039.34863935	     -7.53865836	    -15.98622480	   -430.14093018	   -317.75803945	   -716.73316390	      0.00000000	      0.00000000	     -0.00000000	  -1720.58357918	      0.00000000	     -0.00000000	      0.00000000	      0.00000000	      0.00000000	      0.00000000	      0.00000000	      0.00000000	      0.00000000
      0.12000000	      0.00000000	     -0.00000000	      0.00000000	      0.00000000	      0.00000000	      0.00000000	      0.00000000	      0.00000000	      0.00000000	     -2.42100096	     18.17303085	   -210.47898865	   -339.85897877	   -966.36087927	      0.00000000	      0.00000000	      0.00000000	   1123.05741585	     -7.97911617	    -15.71803726	   -427.73623657	   -318.30665692	   -717.74634077	      0.00000000	      0.00000000	     -0.00000000	  -1486.65266685	      0.00000000	     -0.00000000	      0.00000000	      0.00000000	      0.00000000	      0.00000000	      0.00000000	      0.00000000	      0.00000000
      0.13000000	      0.00000000	     -0.00000000	      0.00000000	      0.00000000	      0.00000000	      0.00000000	      0.00000000	      0.00000000	      0.00000000	     -2.49667478	     17.29860878	   -211.54029846	   -340.49882162	   -969.17377871	      0.00000000	      0.00000000	      0.00000000	    960.87600849	     -8.33734390	    -15.72125971	   -428.40905762	   -319.16008420	   -716.10732588	      0.00000000	      0.00000000	     -0.00000000	  -1564.19124568	      0.00000000	     -0.00000000	      0.00000000	      0.00000000	      0.00000000	      0.00000000	      0.00000000	      0.00000000	      0.00000000
      0.14000000	      0.00000000	     -0.00000000	      0.00000000	      0.00000000	      0.00000000	      0.00000000	      0.00000000	      0.00000000	      0.00000000	     -2.49463916	     17.29129791	   -212.60572815	   -339.74841734	   -970.12498011	      0.00000000	      0.00000000	      0.00000000	    950.74802775	     -8.07268212	    -15.81490386	   -427.70022583	   -319.56545728	   -716.83894669	      0.00000000	      0.00000000	     -0.00000000	  -1607.44776212	      0.00000000	     -0.00000000	      0.00000000	      0.00000000	      0.00000000	      0.00000000	      0.00000000	      0.00000000	      0.00000000
      0.15000000	      0.00000000	     -0.00000000	      0.00000000	      0.00000000	      0.00000000	      0.00000000	      0.00000000	      0.00000000	      0.00000000	     -2.58616209	     17.20405197	   -211.54731750	   -339.44322018	   -969.19579089	      0.00000000	      0.00000000	      0.00000000	   1051.23679552	     -7.97680162	    -15.98622478	   -426.68206787	   -321.09753656	   -717.05039976	      0.00000000	      0.00000000	     -0.00000000	  -1450.17615890	      0.00000000	     -0.00000000	      0.00000000	      0.00000000	      0.00000000	      0.00000000	      0.00000000	      0.00000000	      0.00000000
      0.16000000	      0.00000000	     -0.00000000	      0.00000000	      0.00000000	      0.00000000	      0.00000000	      0.00000000	      0.00000000	      0.00000000	     -2.49869466	     17.02150726	   -213.66752625	   -340.10303283	   -971.78906456	      0.00000000	      0.00000000	      0.00000000	   1006.67620832	     -7.27639220	    -15.90000121	   -426.66326904	   -322.92092019	   -716.58284694	      0.00000000	      0.00000000	     -0.00000000	  -1518.95523600	      0.00000000	     -0.00000000	      0.00000000	      0.00000000	      0.00000000	      0.00000000	      0.00000000	      0.00000000	      0.00000000
